<svg width="29" height="29" viewBox="0 0 29 29" fill="none" xmlns="http://www.w3.org/2000/svg">
<path d="M7.23363 26.5561C6.59414 26.5561 5.98084 26.302 5.52865 25.8498C5.07646 25.3976 4.82242 24.7843 4.82242 24.1448V4.85513C4.82242 4.21563 5.07646 3.60233 5.52865 3.15014C5.98084 2.69795 6.59414 2.44391 7.23363 2.44391H16.8785C17.2601 2.44329 17.6381 2.51818 17.9907 2.66426C18.3433 2.81034 18.6635 3.02473 18.9328 3.29507L23.2586 7.62079C23.5296 7.89025 23.7446 8.21075 23.8911 8.56377C24.0376 8.91679 24.1128 9.29534 24.1121 9.67756V24.1448C24.1121 24.7843 23.8581 25.3976 23.4059 25.8498C22.9537 26.302 22.3404 26.5561 21.7009 26.5561H7.23363Z" stroke="white" stroke-width="2.41122" stroke-linecap="round" stroke-linejoin="round"/>
<path d="M16.9167 2.41666V8.45832C16.9167 8.77879 17.044 9.08614 17.2706 9.31274C17.4972 9.53935 17.8046 9.66666 18.125 9.66666H24.1667" stroke="white" stroke-width="2.41122" stroke-linecap="round" stroke-linejoin="round"/>
</svg>
