<svg width="32" height="32" viewBox="0 0 32 32" fill="none" xmlns="http://www.w3.org/2000/svg">
<path d="M7.76304 28.5C7.07674 28.5 6.41854 28.2274 5.93325 27.7421C5.44796 27.2568 5.17532 26.5986 5.17532 25.9123V5.21059C5.17532 4.52428 5.44796 3.86608 5.93325 3.38079C6.41854 2.8955 7.07674 2.62287 7.76304 2.62287H18.1139C18.5235 2.6222 18.9291 2.70257 19.3075 2.85934C19.6859 3.01612 20.0296 3.2462 20.3186 3.53633L24.961 8.1787C25.2519 8.46788 25.4827 8.81184 25.6399 9.1907C25.7971 9.56957 25.8777 9.97583 25.8771 10.386V25.9123C25.8771 26.5986 25.6044 27.2568 25.1191 27.7421C24.6338 28.2274 23.9757 28.5 23.2893 28.5H7.76304Z" stroke="#2165E4" stroke-width="2.58772" stroke-linecap="round" stroke-linejoin="round"/>
<path d="M18.1548 2.59351V9.07743C18.1548 9.42136 18.2915 9.7512 18.5347 9.99439C18.7779 10.2376 19.1077 10.3742 19.4516 10.3742H25.9356" stroke="#2165E4" stroke-width="2.58772" stroke-linecap="round" stroke-linejoin="round"/>
</svg>
